/* XPM */
static char * token_ship_xpm[] = {
"32 26 10 1",
" 	c None",
".	c #8F9F9F",
"+	c #AFB0B0",
"@	c #707F7F",
"#	c #5F6060",
"$	c #2F2F2F",
"%	c #404F4F",
"&	c #FFFFFF",
"*	c #BFF0D0",
"=	c #CFD0D0",
"                                ",
"                                ",
"                                ",
"                                ",
"                                ",
"                .+              ",
"                @.              ",
"          .  .  @+              ",
"          #  #. @.              ",
"      #@+ #  #+ @.              ",
"      .. @@. @.##@..            ",
"      @. ##@@#@$$$$.            ",
"      @.+####@##@@.             ",
"     .#.@@######.+..#+.++.      ",
"   +@%$.%#@##@#%#..@$##@+&..@@# ",
"   .+@#.@@@@...@.++.#..+**+.@@@ ",
"  %$%%@%@#@#@@@@....++++++++=.  ",
" @$$$%%%######@@@@.@+.+.++++=++ ",
" $$$%%#%####@@@.....++++++====+ ",
"                                ",
"                                ",
"                                ",
"                                ",
"                                ",
"                                ",
"                                "};
