/* XPM */
static char * token_canon_xpm[] = {
"32 26 9 1",
" 	c None",
".	c #CFD0D0",
"+	c #AFB0B0",
"@	c #8F9F9F",
"#	c #707F7F",
"$	c #5F6060",
"%	c #DFE0E0",
"&	c #BFF0D0",
"*	c #404F4F",
"                                ",
"                                ",
"                                ",
"                                ",
"             .++++.             ",
"           .++@+#@++.           ",
"          .+#@+.$+@@+.          ",
"         .+#$++.#+++@+.         ",
"         +#+.#++@+++.@+         ",
"        .+@++.@.+@+.#++.%%%%%.  ",
"        +@+++@++++@#++@++++@@@  ",
"       .+#++.+&.+@+@++@+#$**$#  ",
"       @++..++.@#$@$..++#@+     ",
"       @+@*$@++##*@*$#.#        ",
"      $@+@++@+@$*#@$++.#        ",
"    @**#.+@++@+@@@$#+.+#        ",
"   +**+  +@+.#@$*$@+#.@.        ",
"  +$*+   .+.#++.$++.@+#.        ",
" +#$+     .+@++.@+.++#.         ",
" ##+       .++@++.+@#.          ",
" +           .++@@+.            ",
"                                ",
"                                ",
"                                ",
"                                ",
"                                "};
