/* XPM */
static char * token_horse_xpm[] = {
"32 26 11 1",
" 	c None",
".	c #AFB0B0",
"+	c #707F7F",
"@	c #404F4F",
"#	c #8F9F9F",
"$	c #CFD0D0",
"%	c #2F2F2F",
"&	c #5F6060",
"*	c #BFF0D0",
"=	c #DFE0E0",
"-	c #101010",
"                                ",
"                         .      ",
"                         +.     ",
"                       .+@#$.   ",
"                      .+@%+$$.  ",
"                    .##&+&@+..$ ",
"        .%&..     .#&+#..&&&@@. ",
"       .&@@*==.==$+#&&#=$    .+ ",
"     $.+&-@.==.==.&+&&#=$       ",
"     #$#@-%&..&##+@@&&#$.       ",
"    $.  %%%&.$@&&&&@&@#$.       ",
"   $.$  %%%&#+%@%&&@%%@#..      ",
"    $  .%%%%@&#+++####&%+..     ",
"      .@%@+.           .&&.     ",
"      &@+                .+=    ",
"     #@+                  +$    ",
" .+ .&..                  .+$ . ",
" .%#@#$                    @.&+ ",
"  &&#$                     %@@# ",
"   @@.                    .@@+. ",
"    &%++.               .&@&+   ",
"     #@&&+#.         #+&@&&#    ",
"       +@%&@&&&&&&&&@%@@&#      ",
"         .+&@@@%%@@@&+#.        ",
"             ..#....            ",
"                                "};
