/* XPM */
static char * token_topper_xpm[] = {
"32 26 8 1",
" 	c None",
".	c #AFB0B0",
"+	c #DFE0E0",
"@	c #8F9F9F",
"#	c #707F7F",
"$	c #5F6060",
"%	c #404F4F",
"&	c #2F2F2F",
"                                ",
"                                ",
"              .+..              ",
"           @#.++++@$@           ",
"           %$.+++.$&&           ",
"           &%@..@#$&&           ",
"          @&$#..@#$&&@          ",
"          #&$@..@@$%&#          ",
"          $&$@...#$%&$          ",
"          %%$@...#$%&%          ",
"          &%#@..@@$%&&          ",
"         @&%$@@..#$%&&@         ",
"         #&%#@...@$%&&#         ",
"         $&$#@...@#%&&$         ",
"         %&%#@..@@#%%&%         ",
"         &&$@@..@@#$%&&         ",
"        .&&$#...@@#%%&&.        ",
"        @%%$#@@@@##$%%%@        ",
"        $%$#@@..@@#$%%%#        ",
"        %&%$#@@.@@$$%&&%        ",
"        &&%$#..@@@#$%&&&        ",
"       .&&%$#@@@@@$$%%&&.       ",
"       #&&%$$$###$%%%&&&#       ",
"       @$$###########$$#@       ",
"                                ",
"                                "};
