/* XPM */
static char * token_car_xpm[] = {
"32 26 10 1",
" 	c None",
".	c #CFD0D0",
"+	c #DFE0E0",
"@	c #AFB0B0",
"#	c #707F7F",
"$	c #8F9F9F",
"%	c #BFF0D0",
"&	c #5F6060",
"*	c #404F4F",
"=	c #2F2F2F",
"                                ",
"                                ",
"                                ",
"                                ",
"                                ",
"                                ",
"                                ",
"        .+                      ",
"     .+..+       @@             ",
"   #$%.+..      @.@@            ",
"  &*&$#$@@      $...++.@..+++.  ",
" $=**&##$@.     #@+.@@@$@@@@+.$ ",
" *==*&#####.   $#$@.$@@@@@@@@$& ",
" ===&##$&&&###&&###$@$$@$$$@@$* ",
"$==*****##########&&&&$$&*&&&$*$",
"@&&***&*&*&&&#&&###&##$&**&#&&&@",
"  @*&***&               *&****  ",
"   *#&**#               &##&*&  ",
"   @***&                @****   ",
"     @@                   @@    ",
"                                ",
"                                ",
"                                ",
"                                ",
"                                ",
"                                "};
