/* XPM */
static char * token_barrow_xpm[] = {
"32 26 7 1",
" 	c None",
".	c #AFB0B0",
"+	c #8F9F9F",
"@	c #707F7F",
"#	c #5F6060",
"$	c #CFD0D0",
"%	c #404F4F",
"                                ",
"                                ",
"                                ",
"                                ",
"                                ",
"                                ",
"                                ",
"                                ",
"                                ",
"           ....++++++++++       ",
"         @@#@@@@@###@@@@#.      ",
"       .@@####@###@@@#@@#       ",
"       @#@######@@@#@#@@#       ",
".@@@@@@@@@@@@@@@######@##       ",
"      +@@@@#@@@@@@@@@@@@@  $$$. ",
"       @@##+     ..++@@@@#@+.++.",
"       @##.               +@@##+",
"       @@                 .+#%% ",
"                           @%%+ ",
"                                ",
"                                ",
"                                ",
"                                ",
"                                ",
"                                ",
"                                "};
