/* XPM */
static char * token_dog_xpm[] = {
"32 26 10 1",
" 	c None",
".	c #AFB0B0",
"+	c #8F9F9F",
"@	c #DFE0E0",
"#	c #CFD0D0",
"$	c #707F7F",
"%	c #404F4F",
"&	c #F0F0D0",
"*	c #5F6060",
"=	c #2F2F2F",
"                                ",
"                        ..      ",
"                       +.@..    ",
"                      ++#@@+.   ",
"                     ++@@#.$%   ",
"                    ..@@@#...+. ",
"                    +#@#..+.@&..",
"   .               $#@#*==%+.#$ ",
"  .@@         # # .#@@.%=+%*$*+ ",
"  *@&&@@@@@@@@@@@@@@@@#*+  =%.  ",
" .%#@@@@@@@@@@@@@@@@@@@*+  .    ",
" ++###....##.#####@@@&#$$       ",
" $.#....++++......+....$*       ",
" $@#..++$$++...+++..+.+$%       ",
" $@#.+++$*+++++$$+.....+%       ",
" $@..++$*%$$$$$**$++++..=       ",
" +@.++$*==%%%%%===$$+++.*       ",
" +@.$*===%=========%*$++*       ",
" +#+%=%+   .+$$$+. +%$+.$       ",
" +#*=*               *$+++      ",
" +.%%                 *+$*      ",
" .+%.                 +++$      ",
" ..$                   +##+     ",
" ++$                   .++$     ",
"                                ",
"                                "};
