/* XPM */
static char * dialer_xpm[] = {
"32 32 10 1",
" 	c None",
".	c #861782070000",
"X	c #FFFFFFFFFFFF",
"o	c #FFFFFFFF0000",
"O	c #000000000000",
"+	c #C71BC30BC71B",
"@	c #861782078617",
"#	c #861700000000",
"$	c #FFFF0000FFFF",
"%	c #FFFF00000000",
"       ......                   ",
"      .Xooooo...                ",
"     .ooXXXXXooo...             ",
"    .ooo..OOoXXXooo..           ",
"   .ooo..OXoOoooXXooo.          ",
"   ..o...Oo+.OooooXXoo..        ",
"   .o...OOo+.O.ooOO.Xooo.       ",
"   .oo.Oooo+.O..OXoO.Xooo.      ",
"    OoOoooo@@@OOOo+.O.Xooo.     ",
"     O+oXX@XX+@@Oo+.O.oXooo.    ",
"    .+oo.O@XXXX@O@@@@@@XoooXO   ",
"   .+oXX@o.OOXXX@OX+OX+OXXX.O   ",
"  .+oo.OXX@o.OXXX@OX+OX+O...O   ",
" .+oXX.o.OXX@oOXXX@OX+OX+O..O   ",
".+Xo.OXX.o.OoooOXXX@OX+OX+OOO   ",
".+XXXo.OXXOOooo+@XXXXXXXX+O.O   ",
".++XXXXo.OX@Oo+.@XXXXXXXX+O.O   ",
".+o+oXXXoO+X@O..@XXXXXXXX+OO    ",
".++o+o+XXXO+X@OOOXXXXXXXX+OO    ",
".Oo+o+o+XXXO+XXXXXXXXXXXX+O     ",
"  OO+o+o+oX.O+XXXXXXXXXXX+O     ",
"    OOo+o+o..O+XXXXXXXXXX+O     ",
"      OO+o+...O+XXXXXXXXXX+##   ",
"        OOo..OOOO+XXXXXXXX+#$O  ",
"          OOO    OOO+XXXXX#$%#O ",
"                    O+XXX#$%%%#O",
"                     O+X#$%%%#O ",
"                      ##$%%%#O  ",
"                      #$%%%#O   ",
"                       #$%#O    ",
"                        #$O     ",
"                         #      "};
