/* XPM */
static char * mini_kdialer_xpm[] = {
"16 16 62 1",
" 	c None",
".	c #8617820738E3",
"X	c #C71BC30B0000",
"o	c #861782070000",
"O	c #410341030000",
"+	c #FFFFFFFF0000",
"@	c #C71BC30B79E7",
"#	c #79E77DF779E7",
"$	c #FFFFFFFF79E7",
"%	c #E79DDF7D0000",
"&	c #A699A2890000",
"*	c #F7DEF3CE71C6",
"=	c #618561850000",
"-	c #79E77DF70000",
";	c #E79DE38D6185",
":	c #79E77DF738E3",
">	c #E79DDF7D79E7",
",	c #38E33CF30000",
"<	c #B6DAB2CA30C2",
"1	c #C71BC30B8617",
"2	c #B6DAB2CAB6DA",
"3	c #410341034103",
"4	c #A699A2896185",
"5	c #C71BC30B6185",
"6	c #861782072081",
"7	c #861782076185",
"8	c #BEFBBEFBBEFB",
"9	c #E79DDF7DE79D",
"0	c #861782078617",
"q	c #965892489658",
"w	c #000000000000",
"e	c #A699A28979E7",
"r	c #E79DDF7DA699",
"t	c #618561856185",
"y	c #A699A289A699",
"u	c #5144514430C2",
"i	c #FFFFFFFFBEFB",
"p	c #A699A28938E3",
"a	c #208120810000",
"s	c #E79DE38DE79D",
"d	c #E79DE38DA699",
"f	c #D75CD34CD75C",
"g	c #618561852081",
"h	c #9658924830C2",
"j	c #C71BC30BC71B",
"k	c #FFFFFFFFFFFF",
"l	c #71C671C630C2",
"z	c #71C671C671C6",
"x	c #C71BC30B38E3",
"c	c #F7DEF3CEF7DE",
"v	c #30C230C230C2",
"b	c #A69961856185",
"n	c #6185000038E3",
"m	c #E79DBEFBBEFB",
"M	c #E79D000079E7",
"N	c #E79D00000000",
"B	c #208100000000",
"V	c #B6DA71C671C6",
"C	c #FFFF00000000",
"Z	c #861700000000",
"A	c #8617000038E3",
"S	c #FFFF000038E3",
"   .XXoO        ",
"  o+@#$$Xo      ",
" O%&O*=+$$%O    ",
" O%=-;O&:=>+o   ",
"  ,<$123-4O$+o  ",
"  5$6789320q$>w ",
" 5$oer689ty2uow ",
"4ipe>a+<9982saw ",
"4dii=fghjkkksa  ",
"l;;dkzf#8kkksw  ",
" wl;;xuckkkksw  ",
"   wl<=v2kkkkbn ",
"     w   wykmMNB",
"           VMCZ ",
"           ASZ  ",
"            A   "};
